<?xml version="1.0" encoding="UTF-8"?>
<svg fill="none" viewBox="0 0 842 545" xmlns="http://www.w3.org/2000/svg">
<g fill="#5E616A" filter="url(#e)">
<path d="m228.48 326.73h56.536v-15.723h-37.802l-18.734 15.723z"/>
<path d="m455.62 304.98-73.262-87.313v30.443l64.23 77.946 6.356 1.338 2.676-22.414z"/>
<path d="m574.72 327.73h-32.784l-3.011-17.061h35.795v17.061z"/>
<path d="M616.867 217H575.05V232.388H616.867V217Z"/>
<path d="M157.554 283.906H96V265.842H157.554V283.906Z"/>
<path d="m746.66 326.06h-69.248v-14.72h69.248v14.72z"/>
</g>
<path d="M0 0H842V545H0V0Z" fill="url(#b)" fill-opacity=".5"/>
<g filter="url(#d)">
<path d="m151 272.86c0-8.27 1.431-15.903 4.294-22.9 2.862-7.103 6.891-13.199 12.086-18.288 5.3-5.195 11.449-9.223 18.446-12.086 6.997-2.862 14.631-4.293 22.9-4.293s15.902 1.431 22.899 4.293c7.104 2.863 13.252 6.891 18.447 12.086 5.301 5.089 9.383 11.185 12.245 18.288 2.863 6.997 4.294 14.63 4.294 22.9 0 8.269-1.431 15.955-4.294 23.058-2.862 6.997-6.891 13.146-12.086 18.447-5.194 5.195-11.344 9.276-18.446 12.245-6.998 2.862-14.684 4.293-23.059 4.293s-16.062-1.431-23.059-4.293c-6.997-2.969-13.093-7.05-18.287-12.245-5.195-5.301-9.224-11.45-12.086-18.447-2.863-7.103-4.294-14.789-4.294-23.058zm19.878 0c0 7.633 1.59 14.471 4.771 20.514 3.286 5.937 7.792 10.601 13.517 13.994 5.725 3.392 12.245 5.088 19.56 5.088 7.421 0 13.941-1.696 19.56-5.088 5.725-3.393 10.178-8.057 13.358-13.994 3.286-6.043 4.93-12.881 4.93-20.514 0-7.634-1.59-14.419-4.771-20.356-3.181-6.043-7.633-10.76-13.358-14.153-5.619-3.392-12.192-5.089-19.719-5.089-7.315 0-13.835 1.697-19.56 5.089-5.725 3.393-10.231 8.11-13.517 14.153-3.181 5.937-4.771 12.722-4.771 20.356zm195.24-52.314c0-1.847 1.498-3.345 3.345-3.345h11.757c1.847 0 3.345 1.498 3.345 3.345v105.53c0 2.971-3.584 4.467-5.697 2.379l-69.868-69.048c-2.113-2.088-5.697-0.591-5.697 2.38v63.387c0 1.847-1.498 3.345-3.345 3.345h-11.757c-1.847 0-3.345-1.498-3.345-3.345v-105.53c0-2.97 3.584-4.467 5.697-2.379l69.868 69.047c2.113 2.089 5.697 0.592 5.697-2.379v-63.387zm168.68 107.97c-1.323 0-2.521-0.779-3.057-1.987l-10.957-24.651c-0.537-1.208-1.735-1.987-3.057-1.987h-36.68c-1.322 0-2.52 0.779-3.057 1.987l-10.956 24.651c-0.537 1.208-1.735 1.987-3.057 1.987h-13.742c-2.443 0-4.062-2.533-3.036-4.75l49.152-106.21c1.197-2.587 4.875-2.587 6.072 0l49.153 106.21c1.026 2.217-0.594 4.75-3.036 4.75h-13.742zm-32.335-72.643c-1.158-2.706-4.994-2.706-6.151 0l-10.037 23.455c-0.945 2.207 0.675 4.661 3.075 4.661h20.074c2.401 0 4.02-2.454 3.076-4.661l-10.037-23.455zm64.26-35.329c0-1.847 1.498-3.345 3.345-3.345h12.234c1.847 0 3.345 1.498 3.345 3.345v104.63c0 1.847-1.498 3.345-3.345 3.345h-12.234c-1.847 0-3.345-1.498-3.345-3.345v-104.63zm43.794 0c0-1.847 1.497-3.345 3.345-3.345h31.004c8.164 0 15.214 1.431 21.15 4.294 6.043 2.862 10.708 6.891 13.994 12.085 3.287 5.195 4.931 11.291 4.931 18.288 0 8.058-2.227 14.949-6.68 20.674-3.472 4.488-8.028 7.895-13.666 10.219-2.133 0.879-3.06 3.518-1.721 5.398l24.98 35.073c1.578 2.215-5e-3 5.286-2.724 5.286h-14.457c-1.12 0-2.166-0.561-2.786-1.495l-26.004-39.152c-0.619-0.934-1.666-1.495-2.786-1.495h-6.47c-1.847 0-3.345 1.498-3.345 3.346v35.451c0 1.847-1.498 3.345-3.345 3.345h-12.075c-1.848 0-3.345-1.498-3.345-3.345v-104.63zm33.554 13.034h-11.444c-1.847 0-3.345 1.498-3.345 3.346v30.521c0 1.848 1.498 3.345 3.345 3.345h11.444c6.467 0 11.662-1.59 15.584-4.771 3.923-3.286 5.884-7.898 5.884-13.835s-1.961-10.495-5.884-13.676c-3.922-3.286-9.117-4.93-15.584-4.93z" fill="url(#a)"/>
</g>
<g filter="url(#c)">
<rect x="91.835" y="152.84" width="657.42" height="239.92" rx="21.942" stroke="#FFF7F0" stroke-width="17.669"/>
</g>
<defs>
<filter id="e" x="82.619" y="206.3" width="677.43" height="137.49" color-interpolation-filters="sRGB" filterUnits="userSpaceOnUse">
<feFlood flood-opacity="0" result="BackgroundImageFix"/>
<feColorMatrix in="SourceAlpha" result="hardAlpha" values="0 0 0 0 0 0 0 0 0 0 0 0 0 0 0 0 0 0 127 0"/>
<feOffset dy="2.67626"/>
<feGaussianBlur stdDeviation="6.69065"/>
<feColorMatrix values="0 0 0 0 0 0 0 0 0 0 0 0 0 0 0 0 0 0 0.15 0"/>
<feBlend in2="BackgroundImageFix" result="effect1_dropShadow"/>
<feBlend in="SourceGraphic" in2="effect1_dropShadow" result="shape"/>
<feColorMatrix in="SourceAlpha" result="hardAlpha" values="0 0 0 0 0 0 0 0 0 0 0 0 0 0 0 0 0 0 127 0"/>
<feOffset dy="9.36691"/>
<feGaussianBlur stdDeviation="6.35612"/>
<feComposite in2="hardAlpha" k2="-1" k3="1" operator="arithmetic"/>
<feColorMatrix values="0 0 0 0 1 0 0 0 0 1 0 0 0 0 1 0 0 0 0.1 0"/>
<feBlend in2="shape" result="effect2_innerShadow"/>
<feColorMatrix in="SourceAlpha" result="hardAlpha" values="0 0 0 0 0 0 0 0 0 0 0 0 0 0 0 0 0 0 127 0"/>
<feOffset dy="-10.705"/>
<feGaussianBlur stdDeviation="6.35612"/>
<feComposite in2="hardAlpha" k2="-1" k3="1" operator="arithmetic"/>
<feColorMatrix values="0 0 0 0 0 0 0 0 0 0 0 0 0 0 0 0 0 0 0.25 0"/>
<feBlend in2="effect2_innerShadow" result="effect3_innerShadow"/>
</filter>
<filter id="d" x="97.992" y="162.28" width="643.5" height="221.63" color-interpolation-filters="sRGB" filterUnits="userSpaceOnUse">
<feFlood flood-opacity="0" result="BackgroundImageFix"/>
<feColorMatrix in="SourceAlpha" result="hardAlpha" values="0 0 0 0 0 0 0 0 0 0 0 0 0 0 0 0 0 0 127 0"/>
<feOffset dy="8.8347"/>
<feGaussianBlur stdDeviation="8.8347"/>
<feColorMatrix values="0 0 0 0 0.253521 0 0 0 0 0.261127 0 0 0 0 0.286479 0 0 0 1 0"/>
<feBlend in2="BackgroundImageFix" result="effect1_dropShadow"/>
<feColorMatrix in="SourceAlpha" result="hardAlpha" values="0 0 0 0 0 0 0 0 0 0 0 0 0 0 0 0 0 0 127 0"/>
<feOffset/>
<feGaussianBlur stdDeviation="26.5041"/>
<feColorMatrix values="0 0 0 0 1 0 0 0 0 0.537255 0 0 0 0 0.00392157 0 0 0 1 0"/>
<feBlend in2="effect1_dropShadow" result="effect2_dropShadow"/>
<feBlend in="SourceGraphic" in2="effect2_dropShadow" result="shape"/>
<feColorMatrix in="SourceAlpha" result="hardAlpha" values="0 0 0 0 0 0 0 0 0 0 0 0 0 0 0 0 0 0 127 0"/>
<feOffset/>
<feGaussianBlur stdDeviation="8.02878"/>
<feComposite in2="hardAlpha" k2="-1" k3="1" operator="arithmetic"/>
<feColorMatrix values="0 0 0 0 0.992157 0 0 0 0 0.537255 0 0 0 0 0.105882 0 0 0 1 0"/>
<feBlend in2="shape" result="effect3_innerShadow"/>
<feColorMatrix in="SourceAlpha" result="hardAlpha" values="0 0 0 0 0 0 0 0 0 0 0 0 0 0 0 0 0 0 127 0"/>
<feOffset/>
<feGaussianBlur stdDeviation="4.41735"/>
<feComposite in2="hardAlpha" k2="-1" k3="1" operator="arithmetic"/>
<feColorMatrix values="0 0 0 0 0 0 0 0 0 0 0 0 0 0 0 0 0 0 0.25 0"/>
<feBlend in2="effect3_innerShadow" result="effect4_innerShadow"/>
<feColorMatrix in="SourceAlpha" result="hardAlpha" values="0 0 0 0 0 0 0 0 0 0 0 0 0 0 0 0 0 0 127 0"/>
<feOffset dy="8.8347"/>
<feGaussianBlur stdDeviation="8.8347"/>
<feComposite in2="hardAlpha" k2="-1" k3="1" operator="arithmetic"/>
<feColorMatrix values="0 0 0 0 1 0 0 0 0 1 0 0 0 0 1 0 0 0 0.25 0"/>
<feBlend in2="effect4_innerShadow" result="effect5_innerShadow"/>
</filter>
<filter id="c" x="29.475" y="90.475" width="782.14" height="364.64" color-interpolation-filters="sRGB" filterUnits="userSpaceOnUse">
<feFlood flood-opacity="0" result="BackgroundImageFix"/>
<feColorMatrix in="SourceAlpha" result="hardAlpha" values="0 0 0 0 0 0 0 0 0 0 0 0 0 0 0 0 0 0 127 0"/>
<feOffset dy="8.8347"/>
<feGaussianBlur stdDeviation="8.8347"/>
<feColorMatrix values="0 0 0 0 0.253521 0 0 0 0 0.261127 0 0 0 0 0.286479 0 0 0 1 0"/>
<feBlend in2="BackgroundImageFix" result="effect1_dropShadow"/>
<feColorMatrix in="SourceAlpha" result="hardAlpha" values="0 0 0 0 0 0 0 0 0 0 0 0 0 0 0 0 0 0 127 0"/>
<feOffset/>
<feGaussianBlur stdDeviation="26.7626"/>
<feColorMatrix values="0 0 0 0 1 0 0 0 0 0.537255 0 0 0 0 0.00392157 0 0 0 0.8 0"/>
<feBlend in2="effect1_dropShadow" result="effect2_dropShadow"/>
<feBlend in="SourceGraphic" in2="effect2_dropShadow" result="shape"/>
<feColorMatrix in="SourceAlpha" result="hardAlpha" values="0 0 0 0 0 0 0 0 0 0 0 0 0 0 0 0 0 0 127 0"/>
<feOffset/>
<feGaussianBlur stdDeviation="8.02878"/>
<feComposite in2="hardAlpha" k2="-1" k3="1" operator="arithmetic"/>
<feColorMatrix values="0 0 0 0 0.992157 0 0 0 0 0.537255 0 0 0 0 0.105882 0 0 0 1 0"/>
<feBlend in2="shape" result="effect3_innerShadow"/>
<feColorMatrix in="SourceAlpha" result="hardAlpha" values="0 0 0 0 0 0 0 0 0 0 0 0 0 0 0 0 0 0 127 0"/>
<feOffset/>
<feGaussianBlur stdDeviation="8.02878"/>
<feComposite in2="hardAlpha" k2="-1" k3="1" operator="arithmetic"/>
<feColorMatrix values="0 0 0 0 0.992157 0 0 0 0 0.537255 0 0 0 0 0.105882 0 0 0 1 0"/>
<feBlend in2="effect3_innerShadow" result="effect4_innerShadow"/>
<feColorMatrix in="SourceAlpha" result="hardAlpha" values="0 0 0 0 0 0 0 0 0 0 0 0 0 0 0 0 0 0 127 0"/>
<feOffset/>
<feGaussianBlur stdDeviation="4.41735"/>
<feComposite in2="hardAlpha" k2="-1" k3="1" operator="arithmetic"/>
<feColorMatrix values="0 0 0 0 0 0 0 0 0 0 0 0 0 0 0 0 0 0 0.25 0"/>
<feBlend in2="effect4_innerShadow" result="effect5_innerShadow"/>
<feColorMatrix in="SourceAlpha" result="hardAlpha" values="0 0 0 0 0 0 0 0 0 0 0 0 0 0 0 0 0 0 127 0"/>
<feOffset dy="8.8347"/>
<feGaussianBlur stdDeviation="8.8347"/>
<feComposite in2="hardAlpha" k2="-1" k3="1" operator="arithmetic"/>
<feColorMatrix values="0 0 0 0 1 0 0 0 0 1 0 0 0 0 1 0 0 0 0.25 0"/>
<feBlend in2="effect5_innerShadow" result="effect6_innerShadow"/>
</filter>
<radialGradient id="b" cx="0" cy="0" r="1" gradientTransform="translate(421 273) rotate(90) scale(212.5 354.28)" gradientUnits="userSpaceOnUse">
<stop stop-color="#FF7D00" offset="0"/>
<stop stop-color="#FF7D00" stop-opacity=".29" offset=".75251"/>
<stop stop-color="#FF7D00" stop-opacity="0" offset="1"/>
</radialGradient>
<linearGradient id="a" x1="418.94" x2="418.94" y1="158.58" y2="388.07" gradientUnits="userSpaceOnUse">
<stop stop-color="#f90" offset="0"/>
<stop stop-color="#FFD089" offset=".26562"/>
<stop stop-color="#fff" offset=".51562"/>
<stop stop-color="#FFC289" offset=".8125"/>
<stop stop-color="#FF7A00" offset="1"/>
</linearGradient>
</defs>
</svg>
