<svg width="842" height="545" viewBox="0 0 842 545" fill="none" xmlns="http://www.w3.org/2000/svg">
<g filter="url(#filter0_dii)">
<path d="M227.475 327.324H284.011V311.601H246.209L227.475 327.324Z" fill="#BABECA"/>
<path d="M454.622 305.579L381.36 218.266V248.709L445.59 326.655L451.946 327.993L454.622 305.579Z" fill="#BABECA"/>
<path d="M573.716 328.327H540.932L537.921 311.266H573.716V328.327Z" fill="#BABECA"/>
<path d="M615.867 217.597H574.05V232.986H615.867V217.597Z" fill="#BABECA"/>
<path d="M156.554 284.504H95V266.439H156.554V284.504Z" fill="#BABECA"/>
<path d="M745.665 326.655H676.417V311.935H745.665V326.655Z" fill="#BABECA"/>
</g>
<g filter="url(#filter1_ddiii)">
<path d="M150 272.861C150 264.591 151.431 256.958 154.294 249.961C157.156 242.858 161.185 236.762 166.38 231.673C171.68 226.478 177.829 222.45 184.826 219.587C191.823 216.725 199.457 215.294 207.726 215.294C215.995 215.294 223.628 216.725 230.625 219.587C237.729 222.45 243.877 226.478 249.072 231.673C254.373 236.762 258.455 242.858 261.317 249.961C264.18 256.958 265.611 264.591 265.611 272.861C265.611 281.13 264.18 288.816 261.317 295.919C258.455 302.916 254.426 309.065 249.231 314.366C244.037 319.561 237.887 323.642 230.785 326.611C223.787 329.473 216.101 330.904 207.726 330.904C199.351 330.904 191.664 329.473 184.667 326.611C177.67 323.642 171.574 319.561 166.38 314.366C161.185 309.065 157.156 302.916 154.294 295.919C151.431 288.816 150 281.13 150 272.861ZM169.878 272.861C169.878 280.494 171.468 287.332 174.649 293.375C177.935 299.312 182.441 303.976 188.166 307.369C193.891 310.761 200.411 312.457 207.726 312.457C215.147 312.457 221.667 310.761 227.286 307.369C233.011 303.976 237.464 299.312 240.644 293.375C243.93 287.332 245.574 280.494 245.574 272.861C245.574 265.227 243.984 258.442 240.803 252.505C237.622 246.462 233.17 241.745 227.445 238.352C221.826 234.96 215.253 233.263 207.726 233.263C200.411 233.263 193.891 234.96 188.166 238.352C182.441 241.745 177.935 246.462 174.649 252.505C171.468 258.442 169.878 265.227 169.878 272.861ZM365.122 220.547C365.122 218.7 366.62 217.202 368.467 217.202H380.224C382.071 217.202 383.569 218.7 383.569 220.547V326.076C383.569 329.047 379.985 330.543 377.872 328.455L308.004 259.407C305.891 257.319 302.307 258.816 302.307 261.787V325.174C302.307 327.021 300.809 328.519 298.962 328.519H287.205C285.358 328.519 283.86 327.021 283.86 325.174V219.645C283.86 216.675 287.444 215.178 289.557 217.266L359.425 286.313C361.538 288.402 365.122 286.905 365.122 283.934V220.547ZM533.8 328.519C532.477 328.519 531.279 327.74 530.743 326.532L519.786 301.881C519.249 300.673 518.051 299.894 516.729 299.894H480.049C478.727 299.894 477.529 300.673 476.992 301.881L466.036 326.532C465.499 327.74 464.301 328.519 462.979 328.519H449.237C446.794 328.519 445.175 325.986 446.201 323.769L495.353 217.56C496.55 214.973 500.228 214.973 501.425 217.56L550.578 323.769C551.604 325.986 549.984 328.519 547.542 328.519H533.8ZM501.465 255.876C500.307 253.17 496.471 253.17 495.314 255.876L485.277 279.331C484.332 281.538 485.952 283.992 488.352 283.992H508.426C510.827 283.992 512.446 281.538 511.502 279.331L501.465 255.876ZM565.725 220.547C565.725 218.7 567.223 217.202 569.07 217.202H581.304C583.151 217.202 584.649 218.7 584.649 220.547V325.174C584.649 327.021 583.151 328.519 581.304 328.519H569.07C567.223 328.519 565.725 327.021 565.725 325.174V220.547ZM609.519 220.547C609.519 218.7 611.016 217.202 612.864 217.202H643.868C652.032 217.202 659.082 218.633 665.018 221.496C671.061 224.358 675.726 228.387 679.012 233.581C682.299 238.776 683.943 244.872 683.943 251.869C683.943 259.927 681.716 266.818 677.263 272.543C673.791 277.031 669.235 280.438 663.597 282.762C661.464 283.641 660.537 286.28 661.876 288.16L686.856 323.233C688.434 325.448 686.851 328.519 684.132 328.519H669.675C668.555 328.519 667.509 327.958 666.889 327.024L640.885 287.872C640.266 286.938 639.219 286.377 638.099 286.377H631.629C629.782 286.377 628.284 287.875 628.284 289.723V325.174C628.284 327.021 626.786 328.519 624.939 328.519H612.864C611.016 328.519 609.519 327.021 609.519 325.174V220.547ZM643.073 233.581H631.629C629.782 233.581 628.284 235.079 628.284 236.927V267.448C628.284 269.296 629.782 270.793 631.629 270.793H643.073C649.54 270.793 654.735 269.203 658.657 266.022C662.58 262.736 664.541 258.124 664.541 252.187C664.541 246.25 662.58 241.692 658.657 238.511C654.735 235.225 649.54 233.581 643.073 233.581Z" fill="url(#paint0_linear)"/>
</g>
<g filter="url(#filter2_ddiiii)">
<rect x="93" y="154" width="655.086" height="237.59" rx="20.777" stroke="#F0F2FF" stroke-width="20"/>
</g>
<defs>
<filter id="filter0_dii" x="75" y="202.597" width="690.665" height="150.73" filterUnits="userSpaceOnUse" color-interpolation-filters="sRGB">
<feFlood flood-opacity="0" result="BackgroundImageFix"/>
<feColorMatrix in="SourceAlpha" type="matrix" values="0 0 0 0 0 0 0 0 0 0 0 0 0 0 0 0 0 0 127 0"/>
<feOffset dy="5"/>
<feGaussianBlur stdDeviation="10"/>
<feColorMatrix type="matrix" values="0 0 0 0 0 0 0 0 0 0 0 0 0 0 0 0 0 0 0.4 0"/>
<feBlend mode="normal" in2="BackgroundImageFix" result="effect1_dropShadow"/>
<feBlend mode="normal" in="SourceGraphic" in2="effect1_dropShadow" result="shape"/>
<feColorMatrix in="SourceAlpha" type="matrix" values="0 0 0 0 0 0 0 0 0 0 0 0 0 0 0 0 0 0 127 0" result="hardAlpha"/>
<feOffset dy="9.36691"/>
<feGaussianBlur stdDeviation="6.35612"/>
<feComposite in2="hardAlpha" operator="arithmetic" k2="-1" k3="1"/>
<feColorMatrix type="matrix" values="0 0 0 0 1 0 0 0 0 1 0 0 0 0 1 0 0 0 0.1 0"/>
<feBlend mode="normal" in2="shape" result="effect2_innerShadow"/>
<feColorMatrix in="SourceAlpha" type="matrix" values="0 0 0 0 0 0 0 0 0 0 0 0 0 0 0 0 0 0 127 0" result="hardAlpha"/>
<feOffset dy="-10.705"/>
<feGaussianBlur stdDeviation="6.35612"/>
<feComposite in2="hardAlpha" operator="arithmetic" k2="-1" k3="1"/>
<feColorMatrix type="matrix" values="0 0 0 0 0 0 0 0 0 0 0 0 0 0 0 0 0 0 0.25 0"/>
<feBlend mode="normal" in2="effect2_innerShadow" result="effect3_innerShadow"/>
</filter>
<filter id="filter1_ddiii" x="100" y="165.294" width="637.483" height="215.611" filterUnits="userSpaceOnUse" color-interpolation-filters="sRGB">
<feFlood flood-opacity="0" result="BackgroundImageFix"/>
<feColorMatrix in="SourceAlpha" type="matrix" values="0 0 0 0 0 0 0 0 0 0 0 0 0 0 0 0 0 0 127 0"/>
<feOffset dy="8"/>
<feGaussianBlur stdDeviation="10"/>
<feColorMatrix type="matrix" values="0 0 0 0 0.253521 0 0 0 0 0.261127 0 0 0 0 0.286479 0 0 0 0.7 0"/>
<feBlend mode="normal" in2="BackgroundImageFix" result="effect1_dropShadow"/>
<feColorMatrix in="SourceAlpha" type="matrix" values="0 0 0 0 0 0 0 0 0 0 0 0 0 0 0 0 0 0 127 0"/>
<feOffset/>
<feGaussianBlur stdDeviation="25"/>
<feColorMatrix type="matrix" values="0 0 0 0 0.984314 0 0 0 0 0 0 0 0 0 0.529412 0 0 0 0.5 0"/>
<feBlend mode="normal" in2="effect1_dropShadow" result="effect2_dropShadow"/>
<feBlend mode="normal" in="SourceGraphic" in2="effect2_dropShadow" result="shape"/>
<feColorMatrix in="SourceAlpha" type="matrix" values="0 0 0 0 0 0 0 0 0 0 0 0 0 0 0 0 0 0 127 0" result="hardAlpha"/>
<feOffset/>
<feGaussianBlur stdDeviation="5"/>
<feComposite in2="hardAlpha" operator="arithmetic" k2="-1" k3="1"/>
<feColorMatrix type="matrix" values="0 0 0 0 0.984314 0 0 0 0 0 0 0 0 0 0.529412 0 0 0 0.6 0"/>
<feBlend mode="normal" in2="shape" result="effect3_innerShadow"/>
<feColorMatrix in="SourceAlpha" type="matrix" values="0 0 0 0 0 0 0 0 0 0 0 0 0 0 0 0 0 0 127 0" result="hardAlpha"/>
<feOffset/>
<feGaussianBlur stdDeviation="4.41735"/>
<feComposite in2="hardAlpha" operator="arithmetic" k2="-1" k3="1"/>
<feColorMatrix type="matrix" values="0 0 0 0 0 0 0 0 0 0 0 0 0 0 0 0 0 0 0.25 0"/>
<feBlend mode="normal" in2="effect3_innerShadow" result="effect4_innerShadow"/>
<feColorMatrix in="SourceAlpha" type="matrix" values="0 0 0 0 0 0 0 0 0 0 0 0 0 0 0 0 0 0 127 0" result="hardAlpha"/>
<feOffset dy="8.8347"/>
<feGaussianBlur stdDeviation="8.8347"/>
<feComposite in2="hardAlpha" operator="arithmetic" k2="-1" k3="1"/>
<feColorMatrix type="matrix" values="0 0 0 0 1 0 0 0 0 1 0 0 0 0 1 0 0 0 0.25 0"/>
<feBlend mode="normal" in2="effect4_innerShadow" result="effect5_innerShadow"/>
</filter>
<filter id="filter2_ddiiii" x="63" y="124" width="715.086" height="307.59" filterUnits="userSpaceOnUse" color-interpolation-filters="sRGB">
<feFlood flood-opacity="0" result="BackgroundImageFix"/>
<feColorMatrix in="SourceAlpha" type="matrix" values="0 0 0 0 0 0 0 0 0 0 0 0 0 0 0 0 0 0 127 0"/>
<feOffset dy="15"/>
<feGaussianBlur stdDeviation="7.5"/>
<feColorMatrix type="matrix" values="0 0 0 0 0.253521 0 0 0 0 0.261127 0 0 0 0 0.286479 0 0 0 0.21 0"/>
<feBlend mode="normal" in2="BackgroundImageFix" result="effect1_dropShadow"/>
<feColorMatrix in="SourceAlpha" type="matrix" values="0 0 0 0 0 0 0 0 0 0 0 0 0 0 0 0 0 0 127 0"/>
<feOffset/>
<feGaussianBlur stdDeviation="10"/>
<feColorMatrix type="matrix" values="0 0 0 0 0.0521354 0 0 0 0 0.416281 0 0 0 0 0.9625 0 0 0 0.4 0"/>
<feBlend mode="normal" in2="effect1_dropShadow" result="effect2_dropShadow"/>
<feBlend mode="normal" in="SourceGraphic" in2="effect2_dropShadow" result="shape"/>
<feColorMatrix in="SourceAlpha" type="matrix" values="0 0 0 0 0 0 0 0 0 0 0 0 0 0 0 0 0 0 127 0" result="hardAlpha"/>
<feOffset/>
<feGaussianBlur stdDeviation="8.02878"/>
<feComposite in2="hardAlpha" operator="arithmetic" k2="-1" k3="1"/>
<feColorMatrix type="matrix" values="0 0 0 0 0.123608 0 0 0 0 0.105882 0 0 0 0 0.992157 0 0 0 1 0"/>
<feBlend mode="normal" in2="shape" result="effect3_innerShadow"/>
<feColorMatrix in="SourceAlpha" type="matrix" values="0 0 0 0 0 0 0 0 0 0 0 0 0 0 0 0 0 0 127 0" result="hardAlpha"/>
<feOffset/>
<feGaussianBlur stdDeviation="8.02878"/>
<feComposite in2="hardAlpha" operator="arithmetic" k2="-1" k3="1"/>
<feColorMatrix type="matrix" values="0 0 0 0 0.4025 0 0 0 0 0.5334 0 0 0 0 0.9975 0 0 0 0.3 0"/>
<feBlend mode="normal" in2="effect3_innerShadow" result="effect4_innerShadow"/>
<feColorMatrix in="SourceAlpha" type="matrix" values="0 0 0 0 0 0 0 0 0 0 0 0 0 0 0 0 0 0 127 0" result="hardAlpha"/>
<feOffset/>
<feGaussianBlur stdDeviation="4.41735"/>
<feComposite in2="hardAlpha" operator="arithmetic" k2="-1" k3="1"/>
<feColorMatrix type="matrix" values="0 0 0 0 0 0 0 0 0 0 0 0 0 0 0 0 0 0 0.25 0"/>
<feBlend mode="normal" in2="effect4_innerShadow" result="effect5_innerShadow"/>
<feColorMatrix in="SourceAlpha" type="matrix" values="0 0 0 0 0 0 0 0 0 0 0 0 0 0 0 0 0 0 127 0" result="hardAlpha"/>
<feOffset dy="8.8347"/>
<feGaussianBlur stdDeviation="8.8347"/>
<feComposite in2="hardAlpha" operator="arithmetic" k2="-1" k3="1"/>
<feColorMatrix type="matrix" values="0 0 0 0 1 0 0 0 0 1 0 0 0 0 1 0 0 0 0.25 0"/>
<feBlend mode="normal" in2="effect5_innerShadow" result="effect6_innerShadow"/>
</filter>
<linearGradient id="paint0_linear" x1="417.939" y1="158.577" x2="417.939" y2="388.066" gradientUnits="userSpaceOnUse">
<stop offset="0.0833333" stop-color="#FC016E"/>
<stop offset="0.168375" stop-color="#DB70A2"/>
<stop offset="0.515625" stop-color="white"/>
<stop offset="0.842551" stop-color="#EF7EB2"/>
<stop offset="1" stop-color="#FC0176"/>
</linearGradient>
</defs>
</svg>
