<svg width="36" height="14" viewBox="0 0 36 14" fill="none" xmlns="http://www.w3.org/2000/svg">
<path d="M4.05273 11.1709C6.65039 11.1709 8.20215 9.91309 8.20215 7.93066C8.20215 6.37891 7.24512 5.52441 5.13965 5.12109L4.12793 4.92969C3.05469 4.72461 2.61035 4.4375 2.61035 3.91797C2.61035 3.33691 3.14355 2.92676 4.05273 2.92676C4.77734 2.92676 5.32422 3.16602 5.64551 3.78125C5.93945 4.25977 6.28125 4.45801 6.82812 4.45801C7.45703 4.45117 7.88086 4.06152 7.88086 3.48047C7.88086 3.27539 7.84668 3.11133 7.77832 2.94043C7.2998 1.68945 5.91895 0.964844 4.03223 0.964844C1.7627 0.964844 0.115234 2.18848 0.115234 4.08887C0.115234 5.59277 1.14062 6.55664 3.10254 6.92578L4.12109 7.11719C5.29004 7.34277 5.70703 7.62305 5.70703 8.16992C5.70703 8.77148 5.07129 9.20898 4.09375 9.20898C3.30078 9.20898 2.6377 8.94922 2.30273 8.33398C1.98145 7.8418 1.65332 7.6709 1.16797 7.6709C0.532227 7.6709 0.0810547 8.09473 0.0810547 8.72363C0.0810547 8.92871 0.12207 9.14062 0.210938 9.3457C0.621094 10.3643 1.91309 11.1709 4.05273 11.1709ZM11.327 13.6729C12.0311 13.6729 12.537 13.2627 12.537 12.415V9.72852H12.5848C12.9471 10.5898 13.7674 11.1094 14.8612 11.1094C16.7137 11.1094 17.8006 9.70801 17.8006 7.28125C17.8006 4.84766 16.7069 3.44629 14.827 3.44629C13.7537 3.44629 12.9471 3.98633 12.5711 4.88184H12.5233V4.64941C12.5233 3.80176 12.0243 3.39844 11.3202 3.39844C10.6092 3.39844 10.1102 3.80176 10.1102 4.64258V12.415C10.1102 13.2627 10.6161 13.6729 11.327 13.6729ZM13.9246 9.21582C13.0702 9.21582 12.5301 8.46387 12.5233 7.28125C12.5301 6.10547 13.077 5.33984 13.9246 5.33984C14.7791 5.33984 15.326 6.09863 15.326 7.28125C15.326 8.46387 14.786 9.21582 13.9246 9.21582ZM24.4255 11.1709C27.4128 11.1709 29.2927 9.21582 29.2927 6.07129C29.2927 2.92676 27.4128 0.964844 24.4255 0.964844C21.4382 0.964844 19.5514 2.92676 19.5514 6.07129C19.5514 9.21582 21.4313 11.1709 24.4255 11.1709ZM24.4255 9.13379C23.0173 9.13379 22.1081 7.94434 22.1081 6.07129C22.1081 4.19141 23.0241 3.00195 24.4255 3.00195C25.8268 3.00195 26.7429 4.19141 26.7429 6.07129C26.7429 7.94434 25.8268 9.13379 24.4255 9.13379ZM31.7544 13.4062H34.7759C35.1587 13.4062 35.4321 13.1602 35.4321 12.7773C35.4321 12.3877 35.1587 12.1484 34.7759 12.1484H33.2378V12.1143L34.1265 11.3896C34.8921 10.7402 35.2749 10.3984 35.2749 9.67383C35.2749 8.70312 34.4478 8.07422 33.1216 8.07422C31.9595 8.07422 31.146 8.6416 31.146 9.38672C31.146 9.79688 31.4058 10.0293 31.8433 10.0293C32.1167 10.0293 32.3081 9.93359 32.5064 9.67383C32.6978 9.41406 32.8687 9.30469 33.1421 9.30469C33.4361 9.30469 33.6548 9.50293 33.6548 9.79004C33.6548 10.043 33.5318 10.248 32.9302 10.7402L31.4195 11.9844C31.1734 12.1826 31.0571 12.415 31.0571 12.709C31.0571 13.1123 31.3374 13.4062 31.7544 13.4062Z" fill="#60CFFF"/>
</svg>
