<svg width="24" height="25" viewBox="0 0 24 25" fill="none" xmlns="http://www.w3.org/2000/svg">
<path d="M7.90498 17.9666L15.8034 10.0682V16.9696C15.8034 17.5211 16.2559 17.9737 16.8075 17.9737C17.359 17.9737 17.8045 17.5282 17.8045 16.9767V7.65699C17.8045 7.10545 17.359 6.65997 16.8075 6.65997L7.48779 6.64583C7.22327 6.64553 6.9695 6.75048 6.78246 6.93752C6.59542 7.12456 6.49047 7.37833 6.49077 7.64285C6.49077 8.19439 6.93625 8.63987 7.48779 8.63987L14.3892 8.65401L6.49077 16.5524C6.10186 16.9413 6.10186 17.5777 6.49077 17.9666C6.87968 18.3555 7.51607 18.3555 7.90498 17.9666Z" fill="#B90000"/>
</svg>
