<svg width="32" height="32" viewBox="0 0 32 32" fill="none" xmlns="http://www.w3.org/2000/svg">
<rect width="32" height="32" fill="black"/>
<path fill-rule="evenodd" clip-rule="evenodd" d="M9 2C6.79086 2 5 3.79086 5 6V26C5 28.2091 6.79086 30 9 30H23C25.2091 30 27 28.2091 27 26V14V13H19C18.4477 13 18 13.4477 18 14V21C18 22.1046 17.1046 23 16 23C14.8954 23 14 22.1046 14 21V11C14 9.89543 14.8954 9 16 9H22H27V8V6C27 3.79086 25.2091 2 23 2H9Z" fill="#B90000"/>
<path d="M27 13H19C18.4477 13 18 13.4477 18 14V21.0605C18 22.784 15.9657 23.7004 14.6749 22.5585L5 14V26C5 28.2091 6.79086 30 9 30H23C25.2091 30 27 28.2091 27 26V13Z" fill="#EAB424"/>
</svg>
