<?xml version="1.0" encoding="UTF-8"?>
<svg fill="none" viewBox="0 0 842 545" xmlns="http://www.w3.org/2000/svg">
<circle cx="103" cy="389" r="4" fill="#FE3A20"/>
<circle cx="127" cy="389" r="4" fill="#FE3A20"/>
<circle cx="151" cy="389" r="4" fill="#FE3A20"/>
<circle cx="175" cy="389" r="4" fill="#FE3A20"/>
<circle cx="199" cy="389" r="4" fill="#FE3A20"/>
<circle cx="223" cy="389" r="4" fill="#FE3A20"/>
<circle cx="247" cy="389" r="4" fill="#FE3A20"/>
<circle cx="271" cy="389" r="4" fill="#FE3A20"/>
<circle cx="295" cy="389" r="4" fill="#FE3A20"/>
<circle cx="319" cy="389" r="4" fill="#FE3A20"/>
<circle cx="343" cy="389" r="4" fill="#FE3A20"/>
<circle cx="367" cy="389" r="4" fill="#FE3A20"/>
<circle cx="391" cy="389" r="4" fill="#FE3A20"/>
<circle cx="415" cy="389" r="4" fill="#FE3A20"/>
<circle cx="439" cy="389" r="4" fill="#FE3A20"/>
<circle cx="463" cy="389" r="4" fill="#FE3A20"/>
<circle cx="487" cy="389" r="4" fill="#FE3A20"/>
<circle cx="511" cy="389" r="4" fill="#FE3A20"/>
<circle cx="535" cy="389" r="4" fill="#FE3A20"/>
<circle cx="559" cy="389" r="4" fill="#FE3A20"/>
<circle cx="583" cy="389" r="4" fill="#FE3A20"/>
<circle cx="607" cy="389" r="4" fill="#FE3A20"/>
<circle cx="631" cy="389" r="4" fill="#FE3A20"/>
<circle cx="655" cy="389" r="4" fill="#FE3A20"/>
<circle cx="679" cy="389" r="4" fill="#FE3A20"/>
<circle cx="703" cy="389" r="4" fill="#FE3A20"/>
<circle cx="727" cy="389" r="4" fill="#FE3A20"/>
<circle cx="115" cy="373" r="4" fill="#FE3A20"/>
<circle cx="139" cy="373" r="4" fill="#FE3A20"/>
<circle cx="163" cy="373" r="4" fill="#FE3A20"/>
<circle cx="187" cy="373" r="4" fill="#FE3A20"/>
<circle cx="211" cy="373" r="4" fill="#FE3A20"/>
<circle cx="235" cy="373" r="4" fill="#FE3A20"/>
<circle cx="259" cy="373" r="4" fill="#FE3A20"/>
<circle cx="283" cy="373" r="4" fill="#FE3A20"/>
<circle cx="307" cy="373" r="4" fill="#FE3A20"/>
<circle cx="331" cy="373" r="4" fill="#FE3A20"/>
<circle cx="355" cy="373" r="4" fill="#FE3A20"/>
<circle cx="379" cy="373" r="4" fill="#FE3A20"/>
<circle cx="403" cy="373" r="4" fill="#FE3A20"/>
<circle cx="427" cy="373" r="4" fill="#FE3A20"/>
<circle cx="451" cy="373" r="4" fill="#FE3A20"/>
<circle cx="475" cy="373" r="4" fill="#FE3A20"/>
<circle cx="499" cy="373" r="4" fill="#FE3A20"/>
<circle cx="523" cy="373" r="4" fill="#FE3A20"/>
<circle cx="547" cy="373" r="4" fill="#FE3A20"/>
<circle cx="571" cy="373" r="4" fill="#FE3A20"/>
<circle cx="595" cy="373" r="4" fill="#FE3A20"/>
<circle cx="619" cy="373" r="4" fill="#FE3A20"/>
<circle cx="643" cy="373" r="4" fill="#FE3A20"/>
<circle cx="667" cy="373" r="4" fill="#FE3A20"/>
<circle cx="691" cy="373" r="4" fill="#FE3A20"/>
<circle cx="715" cy="373" r="4" fill="#FE3A20"/>
<circle cx="739" cy="373" r="4" fill="#FE3A20"/>
<circle cx="103" cy="357" r="4" fill="#FE3A20"/>
<circle cx="127" cy="357" r="4" fill="#FE3A20"/>
<circle cx="151" cy="357" r="4" fill="#FE3A20"/>
<circle cx="175" cy="357" r="4" fill="#FE3A20"/>
<circle cx="199" cy="357" r="4" fill="#FE3A20"/>
<circle cx="223" cy="357" r="4" fill="#FE3A20"/>
<circle cx="247" cy="357" r="4" fill="#FE3A20"/>
<circle cx="271" cy="357" r="4" fill="#FE3A20"/>
<circle cx="295" cy="357" r="4" fill="#FE3A20"/>
<circle cx="319" cy="357" r="4" fill="#FE3A20"/>
<circle cx="343" cy="357" r="4" fill="#FE3A20"/>
<circle cx="367" cy="357" r="4" fill="#FE3A20"/>
<circle cx="391" cy="357" r="4" fill="#FE3A20"/>
<circle cx="415" cy="357" r="4" fill="#FE3A20"/>
<circle cx="439" cy="357" r="4" fill="#FE3A20"/>
<circle cx="463" cy="357" r="4" fill="#FE3A20"/>
<circle cx="487" cy="357" r="4" fill="#FE3A20"/>
<circle cx="511" cy="357" r="4" fill="#FE3A20"/>
<circle cx="535" cy="357" r="4" fill="#FE3A20"/>
<circle cx="559" cy="357" r="4" fill="#FE3A20"/>
<circle cx="583" cy="357" r="4" fill="#FE3A20"/>
<circle cx="607" cy="357" r="4" fill="#FE3A20"/>
<circle cx="631" cy="357" r="4" fill="#FE3A20"/>
<circle cx="655" cy="357" r="4" fill="#FE3A20"/>
<circle cx="679" cy="357" r="4" fill="#FE3A20"/>
<circle cx="703" cy="357" r="4" fill="#FE3A20"/>
<circle cx="727" cy="357" r="4" fill="#FE3A20"/>
<circle cx="115" cy="341" r="4" fill="#FE3A20"/>
<circle cx="139" cy="341" r="4" fill="#FE3A20"/>
<circle cx="163" cy="341" r="4" fill="#FE3A20"/>
<circle cx="187" cy="341" r="4" fill="#FE3A20"/>
<circle cx="211" cy="341" r="4" fill="#FE3A20"/>
<circle cx="235" cy="341" r="4" fill="#FE3A20"/>
<circle cx="259" cy="341" r="4" fill="#FE3A20"/>
<circle cx="283" cy="341" r="4" fill="#FE3A20"/>
<circle cx="307" cy="341" r="4" fill="#FE3A20"/>
<circle cx="331" cy="341" r="4" fill="#FE3A20"/>
<circle cx="355" cy="341" r="4" fill="#FE3A20"/>
<circle cx="379" cy="341" r="4" fill="#FE3A20"/>
<circle cx="403" cy="341" r="4" fill="#FE3A20"/>
<circle cx="427" cy="341" r="4" fill="#FE3A20"/>
<circle cx="451" cy="341" r="4" fill="#FE3A20"/>
<circle cx="475" cy="341" r="4" fill="#FE3A20"/>
<circle cx="499" cy="341" r="4" fill="#FE3A20"/>
<circle cx="523" cy="341" r="4" fill="#FE3A20"/>
<circle cx="547" cy="341" r="4" fill="#FE3A20"/>
<circle cx="571" cy="341" r="4" fill="#FE3A20"/>
<circle cx="595" cy="341" r="4" fill="#FE3A20"/>
<circle cx="619" cy="341" r="4" fill="#FE3A20"/>
<circle cx="643" cy="341" r="4" fill="#FE3A20"/>
<circle cx="667" cy="341" r="4" fill="#FE3A20"/>
<circle cx="691" cy="341" r="4" fill="#FE3A20"/>
<circle cx="715" cy="341" r="4" fill="#FE3A20"/>
<circle cx="739" cy="341" r="4" fill="#FE3A20"/>
<circle cx="103" cy="325" r="4" fill="#FE3A20"/>
<circle cx="127" cy="325" r="4" fill="#FE3A20"/>
<circle cx="151" cy="325" r="4" fill="#FE3A20"/>
<circle cx="175" cy="325" r="4" fill="#FE3A20"/>
<circle cx="199" cy="325" r="4" fill="#FE3A20"/>
<circle cx="223" cy="325" r="4" fill="#FE3A20"/>
<circle cx="247" cy="325" r="4" fill="#FE3A20"/>
<circle cx="271" cy="325" r="4" fill="#FE3A20"/>
<circle cx="295" cy="325" r="4" fill="#FE3A20"/>
<circle cx="319" cy="325" r="4" fill="#FE3A20"/>
<circle cx="343" cy="325" r="4" fill="#FE3A20"/>
<circle cx="367" cy="325" r="4" fill="#FE3A20"/>
<circle cx="391" cy="325" r="4" fill="#FE3A20"/>
<circle cx="415" cy="325" r="4" fill="#FE3A20"/>
<circle cx="439" cy="325" r="4" fill="#FE3A20"/>
<circle cx="463" cy="325" r="4" fill="#FE3A20"/>
<circle cx="487" cy="325" r="4" fill="#FE3A20"/>
<circle cx="511" cy="325" r="4" fill="#FE3A20"/>
<circle cx="535" cy="325" r="4" fill="#FE3A20"/>
<circle cx="559" cy="325" r="4" fill="#FE3A20"/>
<circle cx="583" cy="325" r="4" fill="#FE3A20"/>
<circle cx="607" cy="325" r="4" fill="#FE3A20"/>
<circle cx="631" cy="325" r="4" fill="#FE3A20"/>
<circle cx="655" cy="325" r="4" fill="#FE3A20"/>
<circle cx="679" cy="325" r="4" fill="#FE3A20"/>
<circle cx="703" cy="325" r="4" fill="#FE3A20"/>
<circle cx="727" cy="325" r="4" fill="#FE3A20"/>
<circle cx="115" cy="309" r="4" fill="#FE3A20"/>
<circle cx="139" cy="309" r="4" fill="#FE3A20"/>
<circle cx="163" cy="309" r="4" fill="#FE3A20"/>
<circle cx="187" cy="309" r="4" fill="#FE3A20"/>
<circle cx="211" cy="309" r="4" fill="#FE3A20"/>
<circle cx="235" cy="309" r="4" fill="#FE3A20"/>
<circle cx="259" cy="309" r="4" fill="#FE3A20"/>
<circle cx="283" cy="309" r="4" fill="#FE3A20"/>
<circle cx="307" cy="309" r="4" fill="#FE3A20"/>
<circle cx="331" cy="309" r="4" fill="#FE3A20"/>
<circle cx="355" cy="309" r="4" fill="#FE3A20"/>
<circle cx="379" cy="309" r="4" fill="#FE3A20"/>
<circle cx="403" cy="309" r="4" fill="#FE3A20"/>
<circle cx="427" cy="309" r="4" fill="#FE3A20"/>
<circle cx="451" cy="309" r="4" fill="#FE3A20"/>
<circle cx="475" cy="309" r="4" fill="#FE3A20"/>
<circle cx="499" cy="309" r="4" fill="#FE3A20"/>
<circle cx="523" cy="309" r="4" fill="#FE3A20"/>
<circle cx="547" cy="309" r="4" fill="#FE3A20"/>
<circle cx="571" cy="309" r="4" fill="#FE3A20"/>
<circle cx="595" cy="309" r="4" fill="#FE3A20"/>
<circle cx="619" cy="309" r="4" fill="#FE3A20"/>
<circle cx="643" cy="309" r="4" fill="#FE3A20"/>
<circle cx="667" cy="309" r="4" fill="#FE3A20"/>
<circle cx="691" cy="309" r="4" fill="#FE3A20"/>
<circle cx="715" cy="309" r="4" fill="#FE3A20"/>
<circle cx="739" cy="309" r="4" fill="#FE3A20"/>
<circle cx="103" cy="293" r="4" fill="#FE3A20"/>
<circle cx="127" cy="293" r="4" fill="#FE3A20"/>
<circle cx="151" cy="293" r="4" fill="#FE3A20"/>
<circle cx="175" cy="293" r="4" fill="#FE3A20"/>
<circle cx="199" cy="293" r="4" fill="#FE3A20"/>
<circle cx="223" cy="293" r="4" fill="#FE3A20"/>
<circle cx="247" cy="293" r="4" fill="#FE3A20"/>
<circle cx="271" cy="293" r="4" fill="#FE3A20"/>
<circle cx="295" cy="293" r="4" fill="#FE3A20"/>
<circle cx="319" cy="293" r="4" fill="#FE3A20"/>
<circle cx="343" cy="293" r="4" fill="#FE3A20"/>
<circle cx="367" cy="293" r="4" fill="#FE3A20"/>
<circle cx="391" cy="293" r="4" fill="#FE3A20"/>
<circle cx="415" cy="293" r="4" fill="#FE3A20"/>
<circle cx="439" cy="293" r="4" fill="#FE3A20"/>
<circle cx="463" cy="293" r="4" fill="#FE3A20"/>
<circle cx="487" cy="293" r="4" fill="#FE3A20"/>
<circle cx="511" cy="293" r="4" fill="#FE3A20"/>
<circle cx="535" cy="293" r="4" fill="#FE3A20"/>
<circle cx="559" cy="293" r="4" fill="#FE3A20"/>
<circle cx="583" cy="293" r="4" fill="#FE3A20"/>
<circle cx="607" cy="293" r="4" fill="#FE3A20"/>
<circle cx="631" cy="293" r="4" fill="#FE3A20"/>
<circle cx="655" cy="293" r="4" fill="#FE3A20"/>
<circle cx="679" cy="293" r="4" fill="#FE3A20"/>
<circle cx="703" cy="293" r="4" fill="#FE3A20"/>
<circle cx="727" cy="293" r="4" fill="#FE3A20"/>
<circle cx="115" cy="277" r="4" fill="#FE3A20"/>
<circle cx="139" cy="277" r="4" fill="#FE3A20"/>
<circle cx="163" cy="277" r="4" fill="#FE3A20"/>
<circle cx="187" cy="277" r="4" fill="#FE3A20"/>
<circle cx="211" cy="277" r="4" fill="#FE3A20"/>
<circle cx="235" cy="277" r="4" fill="#FE3A20"/>
<circle cx="259" cy="277" r="4" fill="#FE3A20"/>
<circle cx="283" cy="277" r="4" fill="#FE3A20"/>
<circle cx="307" cy="277" r="4" fill="#FE3A20"/>
<circle cx="331" cy="277" r="4" fill="#FE3A20"/>
<circle cx="355" cy="277" r="4" fill="#FE3A20"/>
<circle cx="379" cy="277" r="4" fill="#FE3A20"/>
<circle cx="403" cy="277" r="4" fill="#FE3A20"/>
<circle cx="427" cy="277" r="4" fill="#FE3A20"/>
<circle cx="451" cy="277" r="4" fill="#FE3A20"/>
<circle cx="475" cy="277" r="4" fill="#FE3A20"/>
<circle cx="499" cy="277" r="4" fill="#FE3A20"/>
<circle cx="523" cy="277" r="4" fill="#FE3A20"/>
<circle cx="547" cy="277" r="4" fill="#FE3A20"/>
<circle cx="571" cy="277" r="4" fill="#FE3A20"/>
<circle cx="595" cy="277" r="4" fill="#FE3A20"/>
<circle cx="619" cy="277" r="4" fill="#FE3A20"/>
<circle cx="643" cy="277" r="4" fill="#FE3A20"/>
<circle cx="667" cy="277" r="4" fill="#FE3A20"/>
<circle cx="691" cy="277" r="4" fill="#FE3A20"/>
<circle cx="715" cy="277" r="4" fill="#FE3A20"/>
<circle cx="739" cy="277" r="4" fill="#FE3A20"/>
<circle cx="103" cy="261" r="4" fill="#FE3A20"/>
<circle cx="127" cy="261" r="4" fill="#FE3A20"/>
<circle cx="151" cy="261" r="4" fill="#FE3A20"/>
<circle cx="175" cy="261" r="4" fill="#FE3A20"/>
<circle cx="199" cy="261" r="4" fill="#FE3A20"/>
<circle cx="223" cy="261" r="4" fill="#FE3A20"/>
<circle cx="247" cy="261" r="4" fill="#FE3A20"/>
<circle cx="271" cy="261" r="4" fill="#FE3A20"/>
<circle cx="295" cy="261" r="4" fill="#FE3A20"/>
<circle cx="319" cy="261" r="4" fill="#FE3A20"/>
<circle cx="343" cy="261" r="4" fill="#FE3A20"/>
<circle cx="367" cy="261" r="4" fill="#FE3A20"/>
<circle cx="391" cy="261" r="4" fill="#FE3A20"/>
<circle cx="415" cy="261" r="4" fill="#FE3A20"/>
<circle cx="439" cy="261" r="4" fill="#FE3A20"/>
<circle cx="463" cy="261" r="4" fill="#FE3A20"/>
<circle cx="487" cy="261" r="4" fill="#FE3A20"/>
<circle cx="511" cy="261" r="4" fill="#FE3A20"/>
<circle cx="535" cy="261" r="4" fill="#FE3A20"/>
<circle cx="559" cy="261" r="4" fill="#FE3A20"/>
<circle cx="583" cy="261" r="4" fill="#FE3A20"/>
<circle cx="607" cy="261" r="4" fill="#FE3A20"/>
<circle cx="631" cy="261" r="4" fill="#FE3A20"/>
<circle cx="655" cy="261" r="4" fill="#FE3A20"/>
<circle cx="679" cy="261" r="4" fill="#FE3A20"/>
<circle cx="703" cy="261" r="4" fill="#FE3A20"/>
<circle cx="727" cy="261" r="4" fill="#FE3A20"/>
<circle cx="115" cy="245" r="4" fill="#FE3A20"/>
<circle cx="139" cy="245" r="4" fill="#FE3A20"/>
<circle cx="163" cy="245" r="4" fill="#FE3A20"/>
<circle cx="187" cy="245" r="4" fill="#FE3A20"/>
<circle cx="211" cy="245" r="4" fill="#FE3A20"/>
<circle cx="235" cy="245" r="4" fill="#FE3A20"/>
<circle cx="259" cy="245" r="4" fill="#FE3A20"/>
<circle cx="283" cy="245" r="4" fill="#FE3A20"/>
<circle cx="307" cy="245" r="4" fill="#FE3A20"/>
<circle cx="331" cy="245" r="4" fill="#FE3A20"/>
<circle cx="355" cy="245" r="4" fill="#FE3A20"/>
<circle cx="379" cy="245" r="4" fill="#FE3A20"/>
<circle cx="403" cy="245" r="4" fill="#FE3A20"/>
<circle cx="427" cy="245" r="4" fill="#FE3A20"/>
<circle cx="451" cy="245" r="4" fill="#FE3A20"/>
<circle cx="475" cy="245" r="4" fill="#FE3A20"/>
<circle cx="499" cy="245" r="4" fill="#FE3A20"/>
<circle cx="523" cy="245" r="4" fill="#FE3A20"/>
<circle cx="547" cy="245" r="4" fill="#FE3A20"/>
<circle cx="571" cy="245" r="4" fill="#FE3A20"/>
<circle cx="595" cy="245" r="4" fill="#FE3A20"/>
<circle cx="619" cy="245" r="4" fill="#FE3A20"/>
<circle cx="643" cy="245" r="4" fill="#FE3A20"/>
<circle cx="667" cy="245" r="4" fill="#FE3A20"/>
<circle cx="691" cy="245" r="4" fill="#FE3A20"/>
<circle cx="715" cy="245" r="4" fill="#FE3A20"/>
<circle cx="739" cy="245" r="4" fill="#FE3A20"/>
<circle cx="103" cy="229" r="4" fill="#FE3A20"/>
<circle cx="127" cy="229" r="4" fill="#FE3A20"/>
<circle cx="151" cy="229" r="4" fill="#FE3A20"/>
<circle cx="175" cy="229" r="4" fill="#FE3A20"/>
<circle cx="199" cy="229" r="4" fill="#FE3A20"/>
<circle cx="223" cy="229" r="4" fill="#FE3A20"/>
<circle cx="247" cy="229" r="4" fill="#FE3A20"/>
<circle cx="271" cy="229" r="4" fill="#FE3A20"/>
<circle cx="295" cy="229" r="4" fill="#FE3A20"/>
<circle cx="319" cy="229" r="4" fill="#FE3A20"/>
<circle cx="343" cy="229" r="4" fill="#FE3A20"/>
<circle cx="367" cy="229" r="4" fill="#FE3A20"/>
<circle cx="391" cy="229" r="4" fill="#FE3A20"/>
<circle cx="415" cy="229" r="4" fill="#FE3A20"/>
<circle cx="439" cy="229" r="4" fill="#FE3A20"/>
<circle cx="463" cy="229" r="4" fill="#FE3A20"/>
<circle cx="487" cy="229" r="4" fill="#FE3A20"/>
<circle cx="511" cy="229" r="4" fill="#FE3A20"/>
<circle cx="535" cy="229" r="4" fill="#FE3A20"/>
<circle cx="559" cy="229" r="4" fill="#FE3A20"/>
<circle cx="583" cy="229" r="4" fill="#FE3A20"/>
<circle cx="607" cy="229" r="4" fill="#FE3A20"/>
<circle cx="631" cy="229" r="4" fill="#FE3A20"/>
<circle cx="655" cy="229" r="4" fill="#FE3A20"/>
<circle cx="679" cy="229" r="4" fill="#FE3A20"/>
<circle cx="703" cy="229" r="4" fill="#FE3A20"/>
<circle cx="727" cy="229" r="4" fill="#FE3A20"/>
<circle cx="115" cy="213" r="4" fill="#FE3A20"/>
<circle cx="139" cy="213" r="4" fill="#FE3A20"/>
<circle cx="163" cy="213" r="4" fill="#FE3A20"/>
<circle cx="187" cy="213" r="4" fill="#FE3A20"/>
<circle cx="211" cy="213" r="4" fill="#FE3A20"/>
<circle cx="235" cy="213" r="4" fill="#FE3A20"/>
<circle cx="259" cy="213" r="4" fill="#FE3A20"/>
<circle cx="283" cy="213" r="4" fill="#FE3A20"/>
<circle cx="307" cy="213" r="4" fill="#FE3A20"/>
<circle cx="331" cy="213" r="4" fill="#FE3A20"/>
<circle cx="355" cy="213" r="4" fill="#FE3A20"/>
<circle cx="379" cy="213" r="4" fill="#FE3A20"/>
<circle cx="403" cy="213" r="4" fill="#FE3A20"/>
<circle cx="427" cy="213" r="4" fill="#FE3A20"/>
<circle cx="451" cy="213" r="4" fill="#FE3A20"/>
<circle cx="475" cy="213" r="4" fill="#FE3A20"/>
<circle cx="499" cy="213" r="4" fill="#FE3A20"/>
<circle cx="523" cy="213" r="4" fill="#FE3A20"/>
<circle cx="547" cy="213" r="4" fill="#FE3A20"/>
<circle cx="571" cy="213" r="4" fill="#FE3A20"/>
<circle cx="595" cy="213" r="4" fill="#FE3A20"/>
<circle cx="619" cy="213" r="4" fill="#FE3A20"/>
<circle cx="643" cy="213" r="4" fill="#FE3A20"/>
<circle cx="667" cy="213" r="4" fill="#FE3A20"/>
<circle cx="691" cy="213" r="4" fill="#FE3A20"/>
<circle cx="715" cy="213" r="4" fill="#FE3A20"/>
<circle cx="739" cy="213" r="4" fill="#FE3A20"/>
<circle cx="103" cy="197" r="4" fill="#FE3A20"/>
<circle cx="127" cy="197" r="4" fill="#FE3A20"/>
<circle cx="151" cy="197" r="4" fill="#FE3A20"/>
<circle cx="175" cy="197" r="4" fill="#FE3A20"/>
<circle cx="199" cy="197" r="4" fill="#FE3A20"/>
<circle cx="223" cy="197" r="4" fill="#FE3A20"/>
<circle cx="247" cy="197" r="4" fill="#FE3A20"/>
<circle cx="271" cy="197" r="4" fill="#FE3A20"/>
<circle cx="295" cy="197" r="4" fill="#FE3A20"/>
<circle cx="319" cy="197" r="4" fill="#FE3A20"/>
<circle cx="343" cy="197" r="4" fill="#FE3A20"/>
<circle cx="367" cy="197" r="4" fill="#FE3A20"/>
<circle cx="391" cy="197" r="4" fill="#FE3A20"/>
<circle cx="415" cy="197" r="4" fill="#FE3A20"/>
<circle cx="439" cy="197" r="4" fill="#FE3A20"/>
<circle cx="463" cy="197" r="4" fill="#FE3A20"/>
<circle cx="487" cy="197" r="4" fill="#FE3A20"/>
<circle cx="511" cy="197" r="4" fill="#FE3A20"/>
<circle cx="535" cy="197" r="4" fill="#FE3A20"/>
<circle cx="559" cy="197" r="4" fill="#FE3A20"/>
<circle cx="583" cy="197" r="4" fill="#FE3A20"/>
<circle cx="607" cy="197" r="4" fill="#FE3A20"/>
<circle cx="631" cy="197" r="4" fill="#FE3A20"/>
<circle cx="655" cy="197" r="4" fill="#FE3A20"/>
<circle cx="679" cy="197" r="4" fill="#FE3A20"/>
<circle cx="703" cy="197" r="4" fill="#FE3A20"/>
<circle cx="727" cy="197" r="4" fill="#FE3A20"/>
<circle cx="115" cy="181" r="4" fill="#FE3A20"/>
<circle cx="139" cy="181" r="4" fill="#FE3A20"/>
<circle cx="163" cy="181" r="4" fill="#FE3A20"/>
<circle cx="187" cy="181" r="4" fill="#FE3A20"/>
<circle cx="211" cy="181" r="4" fill="#FE3A20"/>
<circle cx="235" cy="181" r="4" fill="#FE3A20"/>
<circle cx="259" cy="181" r="4" fill="#FE3A20"/>
<circle cx="283" cy="181" r="4" fill="#FE3A20"/>
<circle cx="307" cy="181" r="4" fill="#FE3A20"/>
<circle cx="331" cy="181" r="4" fill="#FE3A20"/>
<circle cx="355" cy="181" r="4" fill="#FE3A20"/>
<circle cx="379" cy="181" r="4" fill="#FE3A20"/>
<circle cx="403" cy="181" r="4" fill="#FE3A20"/>
<circle cx="427" cy="181" r="4" fill="#FE3A20"/>
<circle cx="451" cy="181" r="4" fill="#FE3A20"/>
<circle cx="475" cy="181" r="4" fill="#FE3A20"/>
<circle cx="499" cy="181" r="4" fill="#FE3A20"/>
<circle cx="523" cy="181" r="4" fill="#FE3A20"/>
<circle cx="547" cy="181" r="4" fill="#FE3A20"/>
<circle cx="571" cy="181" r="4" fill="#FE3A20"/>
<circle cx="595" cy="181" r="4" fill="#FE3A20"/>
<circle cx="619" cy="181" r="4" fill="#FE3A20"/>
<circle cx="643" cy="181" r="4" fill="#FE3A20"/>
<circle cx="667" cy="181" r="4" fill="#FE3A20"/>
<circle cx="691" cy="181" r="4" fill="#FE3A20"/>
<circle cx="715" cy="181" r="4" fill="#FE3A20"/>
<circle cx="739" cy="181" r="4" fill="#FE3A20"/>
<g filter="url(#c)">
<path d="m150 272.86c0-8.27 1.431-15.903 4.294-22.9 2.862-7.103 6.891-13.199 12.086-18.288 5.3-5.195 11.449-9.223 18.446-12.086 6.997-2.862 14.631-4.293 22.9-4.293s15.902 1.431 22.899 4.293c7.104 2.863 13.252 6.891 18.447 12.086 5.301 5.089 9.383 11.185 12.245 18.288 2.863 6.997 4.294 14.63 4.294 22.9 0 8.269-1.431 15.955-4.294 23.058-2.862 6.997-6.891 13.146-12.086 18.447-5.194 5.195-11.344 9.276-18.446 12.245-6.998 2.862-14.684 4.293-23.059 4.293s-16.062-1.431-23.059-4.293c-6.997-2.969-13.093-7.05-18.287-12.245-5.195-5.301-9.224-11.45-12.086-18.447-2.863-7.103-4.294-14.789-4.294-23.058zm19.878 0c0 7.633 1.59 14.471 4.771 20.514 3.286 5.937 7.792 10.601 13.517 13.994 5.725 3.392 12.245 5.088 19.56 5.088 7.421 0 13.941-1.696 19.56-5.088 5.725-3.393 10.178-8.057 13.358-13.994 3.286-6.043 4.93-12.881 4.93-20.514 0-7.634-1.59-14.419-4.771-20.356-3.181-6.043-7.633-10.76-13.358-14.153-5.619-3.392-12.192-5.089-19.719-5.089-7.315 0-13.835 1.697-19.56 5.089-5.725 3.393-10.231 8.11-13.517 14.153-3.181 5.937-4.771 12.722-4.771 20.356zm195.24-55.659h18.447v116.88l-81.262-80.307v74.741h-18.447v-116.88l81.262 80.307v-74.741zm166.5 111.32-12.722-28.625h-41.028l-12.722 28.625h-21.15l54.386-117.52 54.387 117.52h-21.151zm-33.236-79.83-15.107 35.303h30.215l-15.108-35.303zm67.336-31.487h18.924v111.32h-18.924v-111.32zm43.794 0h34.349c8.164 0 15.214 1.431 21.15 4.294 6.043 2.862 10.708 6.891 13.994 12.085 3.287 5.195 4.931 11.291 4.931 18.288 0 8.058-2.227 14.949-6.68 20.674-4.346 5.618-10.389 9.541-18.128 11.768l31.486 44.208h-22.74l-27.988-42.142h-11.609v42.142h-18.765v-111.32zm33.554 16.379h-14.789v37.212h14.789c6.467 0 11.662-1.59 15.584-4.771 3.923-3.286 5.884-7.898 5.884-13.835s-1.961-10.495-5.884-13.676c-3.922-3.286-9.117-4.93-15.584-4.93z" fill="#FE3A20"/>
<path d="m155.22 250.34 2e-3 -5e-3c2.814-6.982 6.767-12.96 11.858-17.947v-1e-3c5.207-5.102 11.246-9.06 18.126-11.874 6.866-2.809 14.369-4.219 22.521-4.219s15.655 1.41 22.521 4.219l5e-3 2e-3c6.984 2.814 13.018 6.77 18.113 11.865l7e-3 8e-3 8e-3 7e-3c5.194 4.986 9.198 10.962 12.01 17.94l2e-3 5e-3c2.808 6.866 4.219 14.369 4.219 22.521 0 8.15-1.41 15.708-4.22 22.682-2.814 6.877-6.77 12.914-11.87 18.12-5.097 5.095-11.133 9.104-18.119 12.024-6.863 2.807-14.418 4.217-22.676 4.217-8.257 0-15.811-1.41-22.674-4.216-6.879-2.92-12.863-6.928-17.962-12.025-5.1-5.206-9.056-11.243-11.87-18.12-2.81-6.975-4.22-14.532-4.22-22.682 0-8.152 1.41-15.655 4.219-22.521zm18.545 43.501 0.01 0.018c3.371 6.089 8.001 10.885 13.882 14.37v1e-3c5.894 3.492 12.594 5.227 20.07 5.227 7.577 0 14.28-1.733 20.073-5.229 5.881-3.487 10.46-8.285 13.725-14.378 3.374-6.204 5.05-13.209 5.05-20.989 0-7.775-1.62-14.725-4.888-20.825-3.264-6.199-7.842-11.054-13.728-14.542-5.795-3.498-12.552-5.231-20.232-5.231-7.476 0-14.176 1.736-20.07 5.229-5.885 3.488-10.516 8.34-13.886 14.536l-3e-3 5e-3c-3.268 6.101-4.889 13.052-4.889 20.828 0 7.775 1.621 14.777 4.886 20.98zm192.36-1.898v-73.741h16.447v113.49l-81.262-80.308v76.136h-16.447v-113.49l79.559 78.625 1.703 1.682v-2.394zm79.445 35.576 52.822-114.14 52.822 114.14h-18.936l-12.722-28.625h-42.328l-12.722 28.625h-18.936zm53.741-79.224-0.919-2.148-0.919 2.148-15.107 35.304-0.596 1.393h33.245l-0.596-1.393-15.108-35.304zm159.01 36.596 30.361 42.628h-20.263l-27.692-41.695-0.297-0.447h-13.145v42.142h-16.765v-109.32h33.349c8.048 0 14.943 1.411 20.716 4.194l6e-3 3e-3c5.888 2.789 10.401 6.696 13.577 11.717 3.172 5.014 4.776 10.919 4.776 17.753 0 7.861-2.168 14.53-6.469 20.06l-1e-3 2e-3c-4.2 5.428-10.052 9.242-17.615 11.419l-1.357 0.39 0.819 1.151zm-30.036-52.31h-1v39.212h15.789c6.631 0 12.068-1.632 16.214-4.994l7e-3 -5e-3 6e-3 -5e-3c4.187-3.508 6.241-8.422 6.241-14.602 0-6.176-2.053-11.043-6.248-14.448-4.145-3.47-9.585-5.158-16.22-5.158h-14.789zm-61.559-14.379h16.924v109.32h-16.924v-109.32z" stroke="#2B1300" stroke-width="2"/>
</g>
<g filter="url(#b)">
<mask id="a" fill="white">
<path d="M758 144H83V402H758V144ZM738 164H103V382H738V164Z" clip-rule="evenodd" fill-rule="evenodd"/>
</mask>
<path d="M758 144H83V402H758V144ZM738 164H103V382H738V164Z" clip-rule="evenodd" fill="#FE3A20" fill-rule="evenodd"/>
<path d="m83 144v-2h-2v2h2zm675 0h2v-2h-2v2zm-675 258h-2v2h2v-2zm675 0v2h2v-2h-2zm-655-238v-2h-2v2h2zm635 0h2v-2h-2v2zm-635 218h-2v2h2v-2zm635 0v2h2v-2h-2zm-655-236h675v-4h-675v4zm2 256v-258h-4v258h4zm673-2h-675v4h675v-4zm-2-256v258h4v-258h-4zm-653 22h635v-4h-635v4zm2 216v-218h-4v218h4zm633-2h-635v4h635v-4zm-2-216v218h4v-218h-4z" fill="#000" mask="url(#a)"/>
</g>
<defs>
<filter id="c" x="150" y="211" width="540.62" height="129.08" color-interpolation-filters="sRGB" filterUnits="userSpaceOnUse">
<feFlood flood-opacity="0" result="BackgroundImageFix"/>
<feColorMatrix in="SourceAlpha" result="hardAlpha" values="0 0 0 0 0 0 0 0 0 0 0 0 0 0 0 0 0 0 127 0"/>
<feOffset dy="6"/>
<feColorMatrix values="0 0 0 0 0.168627 0 0 0 0 0.0745098 0 0 0 0 0 0 0 0 1 0"/>
<feBlend in2="BackgroundImageFix" result="effect1_dropShadow"/>
<feColorMatrix in="SourceAlpha" result="hardAlpha" values="0 0 0 0 0 0 0 0 0 0 0 0 0 0 0 0 0 0 127 0"/>
<feOffset dy="5"/>
<feColorMatrix values="0 0 0 0 0.168627 0 0 0 0 0.0745098 0 0 0 0 0 0 0 0 1 0"/>
<feBlend in2="effect1_dropShadow" result="effect2_dropShadow"/>
<feColorMatrix in="SourceAlpha" result="hardAlpha" values="0 0 0 0 0 0 0 0 0 0 0 0 0 0 0 0 0 0 127 0"/>
<feOffset dy="4"/>
<feColorMatrix values="0 0 0 0 0.168627 0 0 0 0 0.0745098 0 0 0 0 0 0 0 0 1 0"/>
<feBlend in2="effect2_dropShadow" result="effect3_dropShadow"/>
<feColorMatrix in="SourceAlpha" result="hardAlpha" values="0 0 0 0 0 0 0 0 0 0 0 0 0 0 0 0 0 0 127 0"/>
<feOffset dy="3"/>
<feColorMatrix values="0 0 0 0 0.168627 0 0 0 0 0.0745098 0 0 0 0 0 0 0 0 1 0"/>
<feBlend in2="effect3_dropShadow" result="effect4_dropShadow"/>
<feColorMatrix in="SourceAlpha" result="hardAlpha" values="0 0 0 0 0 0 0 0 0 0 0 0 0 0 0 0 0 0 127 0"/>
<feOffset dy="2"/>
<feColorMatrix values="0 0 0 0 0.168627 0 0 0 0 0.0745098 0 0 0 0 0 0 0 0 1 0"/>
<feBlend in2="effect4_dropShadow" result="effect5_dropShadow"/>
<feColorMatrix in="SourceAlpha" result="hardAlpha" values="0 0 0 0 0 0 0 0 0 0 0 0 0 0 0 0 0 0 127 0"/>
<feOffset dy="1"/>
<feColorMatrix values="0 0 0 0 0.168627 0 0 0 0 0.0745098 0 0 0 0 0 0 0 0 1 0"/>
<feBlend in2="effect5_dropShadow" result="effect6_dropShadow"/>
<feBlend in="SourceGraphic" in2="effect6_dropShadow" result="shape"/>
</filter>
<filter id="b" x="83" y="144" width="675" height="264" color-interpolation-filters="sRGB" filterUnits="userSpaceOnUse">
<feFlood flood-opacity="0" result="BackgroundImageFix"/>
<feColorMatrix in="SourceAlpha" result="hardAlpha" values="0 0 0 0 0 0 0 0 0 0 0 0 0 0 0 0 0 0 127 0"/>
<feOffset dy="6"/>
<feColorMatrix values="0 0 0 0 0.168627 0 0 0 0 0.0745098 0 0 0 0 0 0 0 0 1 0"/>
<feBlend in2="BackgroundImageFix" result="effect1_dropShadow"/>
<feColorMatrix in="SourceAlpha" result="hardAlpha" values="0 0 0 0 0 0 0 0 0 0 0 0 0 0 0 0 0 0 127 0"/>
<feOffset dy="5"/>
<feColorMatrix values="0 0 0 0 0.168627 0 0 0 0 0.0745098 0 0 0 0 0 0 0 0 1 0"/>
<feBlend in2="effect1_dropShadow" result="effect2_dropShadow"/>
<feColorMatrix in="SourceAlpha" result="hardAlpha" values="0 0 0 0 0 0 0 0 0 0 0 0 0 0 0 0 0 0 127 0"/>
<feOffset dy="4"/>
<feColorMatrix values="0 0 0 0 0.168627 0 0 0 0 0.0745098 0 0 0 0 0 0 0 0 1 0"/>
<feBlend in2="effect2_dropShadow" result="effect3_dropShadow"/>
<feColorMatrix in="SourceAlpha" result="hardAlpha" values="0 0 0 0 0 0 0 0 0 0 0 0 0 0 0 0 0 0 127 0"/>
<feOffset dy="3"/>
<feColorMatrix values="0 0 0 0 0.168627 0 0 0 0 0.0745098 0 0 0 0 0 0 0 0 1 0"/>
<feBlend in2="effect3_dropShadow" result="effect4_dropShadow"/>
<feColorMatrix in="SourceAlpha" result="hardAlpha" values="0 0 0 0 0 0 0 0 0 0 0 0 0 0 0 0 0 0 127 0"/>
<feOffset dy="2"/>
<feColorMatrix values="0 0 0 0 0.168627 0 0 0 0 0.0745098 0 0 0 0 0 0 0 0 1 0"/>
<feBlend in2="effect4_dropShadow" result="effect5_dropShadow"/>
<feColorMatrix in="SourceAlpha" result="hardAlpha" values="0 0 0 0 0 0 0 0 0 0 0 0 0 0 0 0 0 0 127 0"/>
<feOffset dy="1"/>
<feColorMatrix values="0 0 0 0 0.168627 0 0 0 0 0.0745098 0 0 0 0 0 0 0 0 1 0"/>
<feBlend in2="effect5_dropShadow" result="effect6_dropShadow"/>
<feBlend in="SourceGraphic" in2="effect6_dropShadow" result="shape"/>
</filter>
</defs>
</svg>
